<svg width="19" height="17" viewBox="0 0 19 17" fill="none" xmlns="http://www.w3.org/2000/svg">
<path d="M18.3839 1.37619L15.51 15.8796C15.51 15.8796 15.1079 16.8856 14.0028 16.4028L7.3712 11.3137L4.95971 10.1471L0.900571 8.77906C0.900571 8.77906 0.277804 8.55758 0.217516 8.0748C0.157229 7.59202 0.921068 7.33071 0.921068 7.33071L17.0582 0.994187C17.0576 0.993584 18.3839 0.410624 18.3839 1.37619Z" fill="white"/>
<path d="M6.86052 15.7164C6.86052 15.7164 6.667 15.6983 6.42585 14.9337C6.1847 14.1691 4.95906 10.1463 4.95906 10.1463L14.7051 3.95042C14.7051 3.95042 15.2676 3.60824 15.2477 3.95042C15.2477 3.95042 15.3484 4.01076 15.0469 4.29259C14.7455 4.57441 7.39045 11.1922 7.39045 11.1922" fill="#DDDDDD"/>
</svg>
