<svg width="18" height="15" viewBox="0 0 18 15" fill="none" xmlns="http://www.w3.org/2000/svg">
<path d="M17.3593 1.66975C16.7138 1.95292 16.0259 2.14062 15.3087 2.23176C16.0465 1.79126 16.6096 1.09906 16.8743 0.264729C16.1865 0.674843 15.427 0.964526 14.6176 1.12618C13.9645 0.430728 13.0336 0 12.0181 0C10.0478 0 8.46157 1.59923 8.46157 3.55974C8.46157 3.84183 8.48544 4.11307 8.54403 4.37129C5.58535 4.22699 2.96736 2.80895 1.20864 0.648804C0.901599 1.18152 0.721496 1.79126 0.721496 2.44766C0.721496 3.68017 1.3562 4.77272 2.30228 5.40525C1.73051 5.3944 1.16958 5.2284 0.694372 4.96693C0.694372 4.97778 0.694372 4.99188 0.694372 5.00599C0.694372 6.73541 1.92797 8.17189 3.54564 8.5028C3.25595 8.582 2.94023 8.61998 2.61257 8.61998C2.38473 8.61998 2.15472 8.60696 1.93882 8.55922C2.39992 9.96858 3.70838 11.0047 5.26421 11.0383C4.0534 11.9855 2.51601 12.5562 0.851691 12.5562C0.559837 12.5562 0.279919 12.5432 0 12.5074C1.57644 13.524 3.44474 14.1044 5.4595 14.1044C12.0083 14.1044 15.5887 8.67965 15.5887 3.97745C15.5887 3.82013 15.5832 3.66824 15.5756 3.51743C16.2819 3.01618 16.8754 2.39016 17.3593 1.66975Z" fill="white"/>
</svg>
