<svg width="24" height="20" viewBox="0 0 24 20" fill="none" xmlns="http://www.w3.org/2000/svg">
<path d="M23.4925 0.727194L19.899 18.862C19.899 18.862 19.3962 20.1199 18.0145 19.5162L9.72245 13.1528L6.70717 11.6942L1.63169 9.98361C1.63169 9.98361 0.852997 9.70668 0.777615 9.10301C0.702233 8.49935 1.65732 8.17262 1.65732 8.17262L21.8348 0.249546C21.8341 0.248791 23.4925 -0.480132 23.4925 0.727194Z" fill="white"/>
<path d="M9.08407 18.6575C9.08407 18.6575 8.84209 18.6349 8.54057 17.6789C8.23904 16.7228 6.70652 11.6928 6.70652 11.6928L18.8928 3.94552C18.8928 3.94552 19.5961 3.51768 19.5712 3.94552C19.5712 3.94552 19.6971 4.02098 19.3202 4.37337C18.9433 4.72576 9.74668 13.0005 9.74668 13.0005" fill="#DDDDDD"/>
</svg>
