<svg width="22" height="18" viewBox="0 0 22 18" fill="none" xmlns="http://www.w3.org/2000/svg">
<path d="M21.7363 2.09368C20.9291 2.44776 20.069 2.68245 19.1723 2.79641C20.0948 2.24562 20.7989 1.38011 21.1299 0.336872C20.2698 0.849671 19.3202 1.21189 18.3082 1.41402C17.4915 0.544434 16.3275 0.00585938 15.0577 0.00585938C12.5941 0.00585938 10.6108 2.0055 10.6108 4.4569C10.6108 4.80962 10.6406 5.14877 10.7139 5.47164C7.01439 5.29121 3.74089 3.51812 1.54183 0.817112C1.15791 1.48321 0.932709 2.24562 0.932709 3.06637C0.932709 4.60748 1.72633 5.97359 2.90929 6.76449C2.19436 6.75092 1.49299 6.54336 0.898794 6.21642C0.898794 6.22999 0.898794 6.24762 0.898794 6.26526C0.898794 8.42769 2.44126 10.2238 4.46396 10.6376C4.10175 10.7366 3.70698 10.7841 3.29728 10.7841C3.01239 10.7841 2.72479 10.7678 2.45482 10.7082C3.03138 12.4704 4.66746 13.766 6.61283 13.808C5.09886 14.9923 3.17654 15.7059 1.0955 15.7059C0.730574 15.7059 0.380569 15.6896 0.0305634 15.6449C2.00172 16.916 4.3378 17.6418 6.85702 17.6418C15.0455 17.6418 19.5223 10.8587 19.5223 4.97919C19.5223 4.78248 19.5156 4.59256 19.5061 4.40399C20.3892 3.77723 21.1313 2.99447 21.7363 2.09368Z" fill="white"/>
</svg>
