<?xml version="1.0" encoding="utf-8"?>
<!-- Generator: Adobe Illustrator 19.0.0, SVG Export Plug-In . SVG Version: 6.00 Build 0)  -->
<svg version="1.1" id="Layer_1" xmlns="http://www.w3.org/2000/svg" xmlns:xlink="http://www.w3.org/1999/xlink" x="0px" y="0px"
	 viewBox="0 0 612 792" enable-background="new 0 0 612 792" xml:space="preserve">
<g id="XMLID_5_">
	<g id="XMLID_136_" display="none">
		<defs>
			<rect id="XMLID_137_" y="-11" width="612" height="792"/>
		</defs>
		<clipPath id="XMLID_7_" display="inline">
			<use xlink:href="#XMLID_137_"  overflow="visible"/>
		</clipPath>
		<linearGradient id="XMLID_8_" gradientUnits="userSpaceOnUse" x1="306" y1="1193.9431" x2="306" y2="-423.9749">
			<stop  offset="0" style="stop-color:#FDB913"/>
			<stop  offset="6.962367e-003" style="stop-color:#FDB913"/>
			<stop  offset="0.1746" style="stop-color:#FFC808"/>
			<stop  offset="0.3402" style="stop-color:#FFD100"/>
			<stop  offset="0.5" style="stop-color:#FFD400"/>
			<stop  offset="0.5631" style="stop-color:#FFCB05"/>
			<stop  offset="0.6662" style="stop-color:#FEC10F"/>
			<stop  offset="0.7915" style="stop-color:#FDBA12"/>
			<stop  offset="1" style="stop-color:#FDB913"/>
		</linearGradient>
		<polygon id="XMLID_139_" display="inline" clip-path="url(#XMLID_7_)" fill="url(#XMLID_8_)" points="306.7,-424 305.3,-424 
			-364,230.3 -364,539.7 305.3,1193.9 306.7,1193.9 976,539.7 976,230.3 		"/>
		<linearGradient id="XMLID_9_" gradientUnits="userSpaceOnUse" x1="306" y1="805.5814" x2="306" y2="-70.6611">
			<stop  offset="4.135833e-007" style="stop-color:#0072BC"/>
			<stop  offset="0.7976" style="stop-color:#00AEEF"/>
		</linearGradient>
		
			<rect id="XMLID_138_" x="170.8" y="-70.7" display="inline" clip-path="url(#XMLID_7_)" fill="url(#XMLID_9_)" width="270.4" height="876.2"/>
	</g>
	<g id="XMLID_6_">
		<g id="XMLID_131_">
			<path id="XMLID_135_" d="M305.7,712.9c-1.9,0-3.6-0.7-5-2L35.4,451.4c-1.4-1.3-2.1-3.2-2.1-5.1V323.6c0-1.9,0.8-3.7,2.1-5.1
				L300.8,59.1c1.3-1.3,3.1-2,5-2h0.6c1.9,0,3.6,0.7,5,2l265.4,259.5c1.4,1.3,2.1,3.2,2.1,5.1v122.7c0,1.9-0.8,3.7-2.1,5.1
				L311.2,710.9c-1.3,1.3-3.1,2-5,2H305.7z"/>
			<path id="XMLID_132_" d="M306.3,64.2l265.4,259.5v122.7L306.3,705.8h-0.6L40.3,446.3V323.6L305.7,64.2H306.3 M306.3,50h-0.6
				c-3.7,0-7.3,1.4-9.9,4L30.4,313.5c-2.7,2.7-4.3,6.3-4.3,10.1v122.7c0,3.8,1.5,7.5,4.3,10.1l265.4,259.5c2.6,2.6,6.2,4,9.9,4h0.6
				c3.7,0,7.3-1.4,9.9-4l265.4-259.5c2.7-2.7,4.3-6.3,4.3-10.1V323.6c0-3.8-1.5-7.5-4.3-10.1L316.2,54C313.5,51.4,310,50,306.3,50
				L306.3,50z"/>
		</g>
		<g id="XMLID_29_">
			<defs>
				<polygon id="XMLID_30_" points="306.3,64.2 305.7,64.2 40.3,323.6 40.3,446.3 305.7,705.8 306.3,705.8 571.7,446.3 571.7,323.6 
									"/>
			</defs>
			<clipPath id="XMLID_11_">
				<use xlink:href="#XMLID_30_"  overflow="visible"/>
			</clipPath>
			<linearGradient id="XMLID_12_" gradientUnits="userSpaceOnUse" x1="306" y1="705.795" x2="306" y2="64.1732">
				<stop  offset="0" style="stop-color:#FDB913"/>
				<stop  offset="6.962367e-003" style="stop-color:#FDB913"/>
				<stop  offset="0.1746" style="stop-color:#FFC808"/>
				<stop  offset="0.3402" style="stop-color:#FFD100"/>
				<stop  offset="0.5" style="stop-color:#FFD400"/>
				<stop  offset="0.5631" style="stop-color:#FFCB05"/>
				<stop  offset="0.6662" style="stop-color:#FEC10F"/>
				<stop  offset="0.7915" style="stop-color:#FDBA12"/>
				<stop  offset="1" style="stop-color:#FDB913"/>
			</linearGradient>
			<polygon id="XMLID_130_" clip-path="url(#XMLID_11_)" fill="url(#XMLID_12_)" points="306.3,64.2 305.7,64.2 40.3,323.6 
				40.3,446.3 305.7,705.8 306.3,705.8 571.7,446.3 571.7,323.6 			"/>
			<linearGradient id="XMLID_21_" gradientUnits="userSpaceOnUse" x1="306" y1="680.9601" x2="306" y2="53.9601">
				<stop  offset="4.135833e-007" style="stop-color:#0072BC"/>
				<stop  offset="0.7976" style="stop-color:#00AEEF"/>
			</linearGradient>
			<rect id="XMLID_129_" x="170.8" y="54" clip-path="url(#XMLID_11_)" fill="url(#XMLID_21_)" width="270.4" height="627"/>
			<ellipse id="XMLID_128_" clip-path="url(#XMLID_11_)" cx="306.1" cy="585.3" rx="101.1" ry="129.1"/>
			<ellipse id="XMLID_127_" clip-path="url(#XMLID_11_)" fill="#FFD68E" cx="305.8" cy="479.3" rx="32.3" ry="19.9"/>
			<g id="XMLID_121_" clip-path="url(#XMLID_11_)">
				<path id="XMLID_99_" fill="#FFD68E" d="M300.1,479.9c-2.5-0.1-61.3-2.6-88.3-21.1c-16.9-11.5-27.4-29.9-31.2-54.5
					c-0.1-0.7-0.2-1.2-0.3-1.6c-0.4-2.1-1.7-11.2-3-20.7c-1.3-9.6-3-21.5-3.4-22.9c-0.7-2.2-3.5-12.7-3.6-13.2l-4.7-17.8l-4.2-14
					c-0.6-2.3-14.3-55.7,11.4-88.9c27.3-35.3,77.3-59.2,127.3-60.9c0,0,0.2,0,0.2,0c50,1.7,99.9,25.6,127.3,60.9
					c25.7,33.2,12,86.5,11.4,88.8l-4.2,14.1l-4.7,17.7c-0.1,0.5-2.9,11-3.6,13.2c-0.3,1.3-2,13.2-3.4,22.8c-1.3,9.6-2.6,18.6-3,20.7
					c-0.1,0.3-0.1,0.9-0.3,1.6c-3.8,24.6-14.3,43-31.2,54.5c-27.1,18.5-85.9,21-88.3,21.1c0,0-0.1,0-0.1,0S300.2,479.9,300.1,479.9z
					"/>
				<path id="XMLID_94_" d="M300.2,167.3c52.4,1.8,100,27.3,125.1,59.8c25.1,32.5,10.9,86.3,10.9,86.3l-4.2,14l-4.7,17.8
					c0,0-2.9,10.9-3.6,13.1c-0.7,2.2-5.6,39.4-6.5,43.8c-0.9,4.4-3.6,36-30.2,54.3c-26.7,18.2-86.9,20.6-86.9,20.6
					s-60.2-2.4-86.9-20.6c-26.7-18.2-29.4-49.8-30.2-54.3c-0.9-4.4-5.8-41.6-6.5-43.8c-0.7-2.2-3.6-13.1-3.6-13.1l-4.7-17.8l-4.2-14
					c0,0-14.2-53.8,10.9-86.3C200.3,194.6,247.9,169.1,300.2,167.3 M300.2,161.6c-0.1,0-0.1,0-0.2,0c-25.8,0.9-51.7,7.4-75.1,19
					c-22.3,11-41,25.9-54.3,43c-26.5,34.3-12.5,88.9-11.9,91.2c0,0.1,0,0.1,0.1,0.2L163,329l4.6,17.7c0.1,0.5,2.8,10.7,3.6,13.2
					c0.4,1.8,2.1,13.8,3.3,22.5c1.6,11.6,2.6,18.8,3.1,20.9c0.1,0.3,0.1,0.8,0.2,1.4c0.6,4.1,2.1,13.7,6.7,24.4
					c5.8,13.5,14.4,24.3,25.7,32c27.7,18.9,87.3,21.5,89.8,21.6c0.1,0,0.1,0,0.2,0c0.1,0,0.1,0,0.2,0c2.5-0.1,62.1-2.7,89.8-21.6
					c11.3-7.7,19.9-18.5,25.7-32c4.6-10.7,6-20.3,6.7-24.4c0.1-0.6,0.2-1.2,0.2-1.4c0.4-2.1,1.4-9.3,3.1-20.9
					c1.2-8.8,2.9-20.7,3.3-22.5c0.7-2.5,3.5-12.7,3.6-13.2l4.6-17.7l4.2-13.9c0-0.1,0-0.1,0.1-0.2c0.6-2.3,14.6-56.9-11.9-91.2
					c-13.3-17.1-32.1-32-54.3-43c-23.3-11.5-49.3-18.1-75.1-19C300.4,161.6,300.3,161.6,300.2,161.6L300.2,161.6z"/>
			</g>
			<path id="XMLID_120_" clip-path="url(#XMLID_11_)" fill="#845020" d="M422.4,344.7c0,0,17.4-75.1-4.3-96.5
				c-21.7-21.4-34.1-26.7-57.6-21.7c-23.5,4.9-55.5-43.9-55.5-43.9l5.2-17.4c0,0,92.5,11.9,125.7,70c0,0,19.4,48.2-5.5,109.5l-2,7.6
				l-2.2,8L422.4,344.7z"/>
			<path id="XMLID_119_" clip-path="url(#XMLID_11_)" fill="#845020" d="M178.6,344.7c0,0-17.4-75.1,4.3-96.5s34.1-26.7,57.6-21.7
				c23.5,4.9,55.5-43.9,55.5-43.9l-5.2-17.4c0,0-92.5,11.9-125.7,70c0,0-19.4,48.2,5.5,109.5l2,7.6l2.2,8L178.6,344.7z"/>
			
				<path id="XMLID_118_" clip-path="url(#XMLID_11_)" fill="#FFFFFF" stroke="#000000" stroke-width="2.8346" stroke-linecap="round" stroke-linejoin="round" stroke-miterlimit="10" d="
				M322.9,383.4c0,0,15.9-7.1,48.6-5.8c0,0,13.7,0.5,21.4,2.8c0,0-11,23.2-27.3,26.8c-16.3,3.5-26.7,1.2-35.5-7.2
				C322.9,394.3,322.9,383.4,322.9,383.4z"/>
			
				<path id="XMLID_117_" clip-path="url(#XMLID_11_)" fill="#2AACE3" stroke="#000000" stroke-width="2.8346" stroke-linecap="round" stroke-linejoin="round" stroke-miterlimit="10" d="
				M375.1,378.7c-2.4,10-11.7,22.8-26.3,22.8c-14.6,0-22.7-18.9-22.7-18.9l37.9-5L375.1,378.7z"/>
			<path id="XMLID_116_" clip-path="url(#XMLID_11_)" d="M331.2,380.6c0,0,1.3,12,16.6,14.9c15.2,2.9,22.6-17.3,22.6-17.3
				S345.3,375.3,331.2,380.6z"/>
			<path id="XMLID_115_" clip-path="url(#XMLID_11_)" d="M335.2,362.3c0,0-10.1,3.9-11.6,7.9c-1.5,4-3,6.8-1.8,1.8
				C323.2,367,326.2,365.1,335.2,362.3z"/>
			<path id="XMLID_114_" clip-path="url(#XMLID_11_)" d="M324.9,355.9c0,0-1.3,0.9,4.1,1.8s25.1,2.9,27.1,3.1c2,0.3,14,2.6,14,2.6
				l17.3,3.8c0,0,2.1-0.4-0.6-0.9c-2.8-0.4-30.3-7.1-30.3-7.1S326.7,355.1,324.9,355.9z"/>
			<path id="XMLID_113_" clip-path="url(#XMLID_11_)" d="M309.8,341.1c0,0-0.1,4,8,6.7c8.1,2.6,18.5,2.4,25.8,2.4
				c7.4,0,17.1-0.6,20.3-0.3c3.2,0.3,21.3,4,21.3,4s6.2,1,6.4,1s2.3-0.6-4.8-2.2c-7.1-1.6-24.9-7-30.8-6.7s-22.3,0.5-26.8-0.3
				s-10.8-1.2-14.3-3C311.5,340.7,310.5,339.7,309.8,341.1z"/>
			<path id="XMLID_112_" clip-path="url(#XMLID_11_)" fill="#FFFFFF" d="M338,383.9c-0.3,1-1.3,1.5-2.4,1.1
				c-1.1-0.4-1.7-1.5-1.5-2.5c0.3-1,1.3-1.5,2.4-1.1C337.6,381.8,338.3,382.9,338,383.9z"/>
			<g id="XMLID_107_" clip-path="url(#XMLID_11_)">
				
					<path id="XMLID_111_" fill="#FFFFFF" stroke="#000000" stroke-width="2.8346" stroke-linecap="round" stroke-linejoin="round" stroke-miterlimit="10" d="
					M282,381.6c0,0-16.3-6.2-48.8-3.2c0,0-13.6,1.2-21.2,4c0,0,12.2,22.6,28.7,25.3c16.5,2.7,26.7-0.3,35.1-9
					C282.5,392.4,282,381.6,282,381.6z"/>
				
					<path id="XMLID_110_" fill="#2AACE3" stroke="#000000" stroke-width="2.8346" stroke-linecap="round" stroke-linejoin="round" stroke-miterlimit="10" d="
					M229.6,379.7c3,9.8,12.8,22.2,27.5,21.4c14.6-0.8,21.6-20.1,21.6-20.1l-38.2-3L229.6,379.7z"/>
				<path id="XMLID_109_" d="M273.6,379.2c0,0-0.7,12-15.8,15.8c-15.1,3.7-23.5-16.1-23.5-16.1S259.1,374.7,273.6,379.2z"/>
				<path id="XMLID_108_" fill="#FFFFFF" d="M266.9,382.8c0.3,1,1.4,1.4,2.4,1c1-0.5,1.7-1.6,1.3-2.6c-0.3-1-1.4-1.4-2.4-1
					S266.6,381.9,266.9,382.8z"/>
			</g>
			<path id="XMLID_106_" clip-path="url(#XMLID_11_)" d="M290.6,341.2c0,0,0.6,9.7,0.9,11.6c0.3,1.9-0.2,8-3.2,9.8
				c0,0-0.7,1.6,0.9,0.3s3.1-4.9,3.2-8.2C292.6,351.4,290.6,341.2,290.6,341.2z"/>
			<path id="XMLID_105_" clip-path="url(#XMLID_11_)" fill="#845020" d="M357.9,189c-8.4-2.1-17.9-6.7-28.3-15.4
				c-21.5-17.9,3.6-35.3,3.6-35.3s-25.9-13.4-66.1,23.5c-20.5,18.9-36.3,27.7-46.8,31.9l-9.1,24.2c76,26,135.6,15.4,174.5,0
				L357.9,189z"/>
			<path id="XMLID_104_" clip-path="url(#XMLID_11_)" d="M282.6,356.8c0,0-9.2,4.7-22,4.3c-12.8-0.4-35.4-1.3-46,0.9
				s-4.6,2.4-4.6,2.4s20.8-0.4,35-0.5s22.3,1.4,30.1-0.7c7.7-2,12.6-4.6,12.6-4.6s1.3-1.7,0-2.6S282.6,356.8,282.6,356.8z"/>
			<path id="XMLID_103_" clip-path="url(#XMLID_11_)" d="M214.9,371.9c0,0,7.4-1.5,22.7-1.1c15.3,0.4,25.7-0.1,32-1s6-1.5,6-1.5
				s3.3-1.1-0.8,1.4s-28.9,2.6-28.9,2.6s-25.3,0.8-29.8,1.2C211.5,374,209,372.9,214.9,371.9z"/>
			<path id="XMLID_102_" clip-path="url(#XMLID_11_)" d="M315.7,417.6c0,0-0.6,2.8,0.3,3.6c0.9,0.8,0.8,4.6-1.2,5.9
				c-2,1.3-4.4,1.3-5.8,1.2c-1.3-0.1-2.4,0.2-3,0.9c-0.7,0.7-0.7,1.5,0.3,1.5s3.6-0.7,4.9-0.5s4.1-0.9,5.1-2.7
				c1-1.8,1.6-4.2,1.1-5.6C316.8,420.2,315.4,420.5,315.7,417.6z"/>
			<path id="XMLID_101_" clip-path="url(#XMLID_11_)" d="M291.8,417.6c0,0,0.6,2.8-0.3,3.6c-0.9,0.8-0.8,4.6,1.2,5.9
				c2,1.3,4.4,1.3,5.8,1.2c1.3-0.1,2.4,0.2,3,0.9c0.7,0.7,0.7,1.5-0.3,1.5s-3.6-0.7-4.9-0.5s-4.1-0.9-5.1-2.7
				c-1-1.8-1.6-4.2-1.1-5.6C290.8,420.2,292.1,420.5,291.8,417.6z"/>
			<g id="XMLID_98_" clip-path="url(#XMLID_11_)">
				<path id="XMLID_57_" d="M235.4,307.4c0,0,0.4-0.2,1.3-0.6c0.8-0.4,2.1-0.9,3.7-1.5c1.6-0.6,3.5-1.3,5.8-2.1
					c2.3-0.7,4.8-1.5,7.7-2.3c0.7-0.2,1.4-0.4,2.2-0.6c0.7-0.2,1.5-0.3,2.3-0.5c1.5-0.4,3.2-0.6,4.8-0.9c1.7-0.3,3.4-0.5,5.1-0.7
					c1.8-0.2,3.6-0.3,5.4-0.4c1.8,0,3.7-0.1,5.6,0c1,0.1,1.9,0.1,2.9,0.2c1,0.1,1.9,0.3,2.9,0.4c1.8,0.2,3.8,0.5,5.7,0.7l2.8,0.1
					c0.5,0,0.9,0,1.4,0l1.4-0.1c1,0,1.9-0.1,2.9-0.2c0.9-0.1,1.9-0.2,2.8-0.3c1.9-0.3,3.8-0.6,5.6-1c3.7-0.8,7.4-1.6,11-2.3
					c0.9-0.2,1.8-0.3,2.7-0.5c0.9-0.1,1.8-0.3,2.7-0.4c1.7-0.3,3.5-0.4,5.2-0.5c0.8-0.1,1.7-0.1,2.5-0.1c0.8,0,1.6,0,2.4-0.1
					c0.8,0,1.6,0,2.3,0c0.8,0,1.5,0.1,2.3,0.1c1.5,0,2.9,0.2,4.2,0.4c1.3,0.2,2.6,0.3,3.8,0.5c1.2,0.2,2.3,0.5,3.3,0.7
					c1,0.2,1.9,0.4,2.8,0.6c3.3,0.9,5.2,1.4,5.2,1.4s-1.9-0.4-5.2-1c-0.8-0.2-1.8-0.3-2.8-0.5c-1-0.1-2.1-0.3-3.3-0.4
					c-1.2-0.2-2.4-0.2-3.7-0.3c-1.3-0.1-2.7-0.2-4.2-0.2c-2.9-0.1-6,0.1-9.3,0.4c-1.6,0.2-3.3,0.3-5,0.7c-0.9,0.1-1.7,0.3-2.6,0.4
					c-0.9,0.2-1.8,0.4-2.6,0.5c-3.6,0.7-7.2,1.7-11,2.4c-1.9,0.4-3.8,0.7-5.7,1.1c-1,0.2-2,0.2-2.9,0.4c-1,0.1-2,0.2-3,0.2l-1.5,0.1
					c-0.5,0-1,0-1.5,0l-3-0.1c-2-0.2-3.8-0.5-5.8-0.8c-0.9-0.1-1.9-0.3-2.8-0.4c-0.9-0.1-1.9-0.1-2.8-0.2c-1.8-0.2-3.7-0.1-5.5-0.1
					c-1.8,0-3.6,0.2-5.3,0.3c-1.7,0.2-3.4,0.3-5.1,0.6c-1.6,0.2-3.2,0.5-4.8,0.7c-0.8,0.1-1.5,0.3-2.3,0.4c-0.7,0.2-1.5,0.3-2.2,0.5
					c-2.8,0.6-5.4,1.2-7.7,1.8c-2.3,0.6-4.3,1.2-5.9,1.7c-1.6,0.5-2.9,0.9-3.8,1.2C235.8,307.2,235.4,307.4,235.4,307.4z"/>
			</g>
			<g id="XMLID_95_" clip-path="url(#XMLID_11_)">
				<path id="XMLID_54_" d="M235.4,294.4c0,0,0.4-0.2,1.3-0.6c0.8-0.4,2.1-0.9,3.7-1.5c1.6-0.6,3.5-1.3,5.8-2.1
					c2.3-0.7,4.8-1.5,7.7-2.3c0.7-0.2,1.4-0.4,2.2-0.6c0.7-0.2,1.5-0.3,2.3-0.5c1.5-0.4,3.2-0.6,4.8-0.9c1.7-0.3,3.4-0.5,5.1-0.7
					c1.8-0.2,3.6-0.3,5.4-0.4c1.8,0,3.7-0.1,5.6,0c1,0.1,1.9,0.1,2.9,0.2c1,0.1,1.9,0.3,2.9,0.4c1.8,0.2,3.8,0.5,5.7,0.7l2.8,0.1
					c0.5,0,0.9,0,1.4,0l1.4-0.1c1,0,1.9-0.1,2.9-0.2c0.9-0.1,1.9-0.2,2.8-0.3c1.9-0.3,3.8-0.6,5.6-1c3.7-0.8,7.4-1.6,11-2.3
					c0.9-0.2,1.8-0.3,2.7-0.5c0.9-0.1,1.8-0.3,2.7-0.4c1.7-0.3,3.5-0.4,5.2-0.5c0.8-0.1,1.7-0.1,2.5-0.1c0.8,0,1.6,0,2.4-0.1
					c0.8,0,1.6,0,2.3,0c0.8,0,1.5,0.1,2.3,0.1c1.5,0,2.9,0.2,4.2,0.4c1.3,0.2,2.6,0.3,3.8,0.5c1.2,0.2,2.3,0.5,3.3,0.7
					c1,0.2,1.9,0.4,2.8,0.6c3.3,0.9,5.2,1.4,5.2,1.4s-1.9-0.4-5.2-1c-0.8-0.2-1.8-0.3-2.8-0.5c-1-0.1-2.1-0.3-3.3-0.4
					c-1.2-0.2-2.4-0.2-3.7-0.3c-1.3-0.1-2.7-0.2-4.2-0.2c-2.9-0.1-6,0.1-9.3,0.4c-1.6,0.2-3.3,0.3-5,0.7c-0.9,0.1-1.7,0.3-2.6,0.4
					c-0.9,0.2-1.8,0.4-2.6,0.5c-3.6,0.7-7.2,1.7-11,2.4c-1.9,0.4-3.8,0.7-5.7,1.1c-1,0.2-2,0.2-2.9,0.4c-1,0.1-2,0.2-3,0.2l-1.5,0.1
					c-0.5,0-1,0-1.5,0l-3-0.1c-2-0.2-3.8-0.5-5.8-0.8c-0.9-0.1-1.9-0.3-2.8-0.4c-0.9-0.1-1.9-0.1-2.8-0.2c-1.8-0.2-3.7-0.1-5.5-0.1
					c-1.8,0-3.6,0.2-5.3,0.3c-1.7,0.2-3.4,0.3-5.1,0.6c-1.6,0.2-3.2,0.5-4.8,0.7c-0.8,0.1-1.5,0.3-2.3,0.4c-0.7,0.2-1.5,0.3-2.2,0.5
					c-2.8,0.6-5.4,1.2-7.7,1.8c-2.3,0.6-4.3,1.2-5.9,1.7c-1.6,0.5-2.9,0.9-3.8,1.2C235.8,294.2,235.4,294.4,235.4,294.4z"/>
			</g>
			<g id="XMLID_92_" clip-path="url(#XMLID_11_)">
				<path id="XMLID_52_" d="M292.5,143.4c0,0-1.5,1-4,2.9c-2.5,1.8-6.1,4.5-10.3,7.8c-2.1,1.7-4.3,3.5-6.6,5.5
					c-2.3,2-4.7,4.2-7.1,6.4c-2.4,2.3-4.8,4.8-7.1,7.3c-2.3,2.6-4.5,5.3-6.4,8.2c-2,2.9-3.7,5.8-5,8.9c-0.7,1.5-1.2,3.1-1.7,4.7
					c-0.4,1.6-0.8,3.1-0.9,4.7c-0.4,3.1-0.2,6.2,0.5,9c0.6,2.8,1.8,5.4,3,7.7c1.3,2.3,2.7,4.2,4.1,5.9c1.4,1.6,2.7,3,3.8,4.1
					c0.6,0.5,1.1,1,1.5,1.5c0.5,0.4,0.8,0.8,1.1,1c0.6,0.6,0.9,0.9,0.9,0.9s-0.4-0.2-1.1-0.7c-0.7-0.4-1.8-1.1-3-2.1
					c-1.3-0.9-2.8-2.1-4.4-3.7c-1.6-1.5-3.4-3.4-4.9-5.7c-1.6-2.3-3.1-5-4-8.1c-0.9-3.1-1.4-6.6-1.1-10.2c0.3-3.6,1.2-7.2,2.6-10.6
					c1.4-3.4,3.3-6.7,5.3-9.7c2.1-3,4.4-5.9,6.9-8.5c2.4-2.6,5-5.1,7.6-7.3c2.6-2.3,5.1-4.3,7.6-6.1c2.5-1.9,4.9-3.5,7.2-5
					c4.5-3,8.5-5.1,11.3-6.6C290.8,144.1,292.5,143.4,292.5,143.4z"/>
			</g>
			<g id="XMLID_89_" clip-path="url(#XMLID_11_)">
				<path id="XMLID_42_" d="M320,143.4c0,0-1.5,1-4,2.9c-2.5,1.8-6.1,4.5-10.3,7.8c-2.1,1.7-4.3,3.5-6.6,5.5c-2.3,2-4.7,4.2-7.1,6.4
					c-2.4,2.3-4.8,4.8-7.1,7.3c-2.3,2.6-4.5,5.3-6.4,8.2c-2,2.9-3.7,5.8-5,8.9c-0.7,1.5-1.2,3.1-1.7,4.7c-0.4,1.6-0.8,3.1-0.9,4.7
					c-0.4,3.1-0.2,6.2,0.5,9c0.6,2.8,1.8,5.4,3,7.7c1.3,2.3,2.7,4.2,4.1,5.9c1.4,1.6,2.7,3,3.8,4.1c0.6,0.5,1.1,1,1.5,1.5
					c0.5,0.4,0.8,0.8,1.1,1c0.6,0.6,0.9,0.9,0.9,0.9s-0.4-0.2-1.1-0.7c-0.7-0.4-1.8-1.1-3-2.1c-1.3-0.9-2.8-2.1-4.4-3.7
					c-1.6-1.5-3.4-3.4-4.9-5.7c-1.6-2.3-3.1-5-4-8.1c-0.9-3.1-1.4-6.6-1.1-10.2c0.3-3.6,1.2-7.2,2.6-10.6c1.4-3.4,3.3-6.7,5.3-9.7
					c2.1-3,4.4-5.9,6.9-8.5c2.4-2.6,5-5.1,7.6-7.3c2.6-2.3,5.1-4.3,7.6-6.1c2.5-1.9,4.9-3.5,7.2-5c4.5-3,8.5-5.1,11.3-6.6
					C318.3,144.1,320,143.4,320,143.4z"/>
			</g>
			<g id="XMLID_86_" clip-path="url(#XMLID_11_)">
				<path id="XMLID_27_" d="M338.5,176.1c0,0-0.9,0.7-2.4,1.9c-0.8,0.6-1.7,1.4-2.7,2.2c-1,0.9-2.2,1.8-3.5,2.9
					c-1.3,1.1-2.6,2.3-4,3.5c-1.4,1.3-2.8,2.6-4.3,4.1c-1.5,1.4-2.9,3-4.3,4.5c-1.4,1.6-2.7,3.3-3.9,5c-1.2,1.7-2.2,3.6-3.1,5.4
					c-0.8,1.9-1.4,3.7-1.6,5.6c-0.2,1.8-0.2,3.7,0.2,5.4c0.1,0.4,0.2,0.8,0.3,1.3c0.2,0.4,0.3,0.8,0.4,1.2c0.1,0.4,0.3,0.8,0.4,1.2
					c0.2,0.4,0.4,0.7,0.6,1.1c0.2,0.4,0.4,0.7,0.5,1c0.2,0.3,0.4,0.6,0.6,0.9c0.4,0.6,0.8,1.2,1.2,1.7c0.4,0.5,0.8,1,1.2,1.4
					c0.4,0.5,0.7,0.9,1,1.2c1.4,1.4,2.1,2.2,2.1,2.2s-1-0.5-2.7-1.6c-0.9-0.5-1.8-1.3-2.9-2.2c-0.5-0.4-1-1-1.6-1.6
					c-0.3-0.3-0.6-0.6-0.8-0.9c-0.3-0.3-0.5-0.7-0.8-1c-0.3-0.4-0.5-0.7-0.8-1.1c-0.3-0.4-0.5-0.8-0.7-1.2c-0.2-0.4-0.5-0.9-0.7-1.3
					c-0.2-0.5-0.3-1-0.5-1.5c-0.4-1-0.5-2.1-0.7-3.2c-0.1-0.5-0.1-1.1-0.1-1.7c0-0.6-0.1-1.2,0-1.7c0.1-1.1,0.2-2.3,0.5-3.5
					c0.2-1.2,0.7-2.3,1.1-3.4c0.9-2.2,2-4.3,3.4-6.2c1.3-1.9,2.8-3.7,4.4-5.4c1.6-1.6,3.2-3.2,4.8-4.5c1.6-1.4,3.3-2.6,4.9-3.8
					c0.8-0.6,1.6-1.1,2.3-1.6c0.8-0.5,1.5-1,2.2-1.4c1.4-0.9,2.8-1.6,4-2.3c1.2-0.7,2.3-1.2,3.2-1.6
					C337.5,176.4,338.5,176.1,338.5,176.1z"/>
			</g>
			<g id="XMLID_75_" clip-path="url(#XMLID_11_)">
				<g id="XMLID_83_">
					<path id="XMLID_84_" fill="#FFD68E" d="M440.5,355.4c1.2,0,2.4,0.3,3.7,0.8c8,3.3,0.5,34.6-3.2,41.4
						c-3.7,6.8-13.4,16.7-21.9,19.5c0,0,2.5-14.7,3.2-19.9c0.7-5.2,3-21.4,4-26.8c1-5.4,2-9.5,2-9.5S433.9,355.2,440.5,355.4"/>
				</g>
				<g id="XMLID_79_">
					<path id="XMLID_80_" d="M440.5,355.4c1.2,0,2.4,0.3,3.7,0.8c8,3.3,0.5,34.6-3.2,41.4c-3.7,6.8-13.4,16.7-21.9,19.5
						c0,0,2.5-14.7,3.2-19.9c0.7-5.2,3-21.4,4-26.8c1-5.4,2-9.5,2-9.5S433.9,355.2,440.5,355.4 M440.8,352.5L440.8,352.5
						c-8.6-0.3-15.1,6-15.8,6.8c-0.4,0.4-0.6,0.8-0.7,1.2c0,0.2-1.1,4.3-2.1,9.7c-1,5.5-3.4,21.8-4,26.9c-0.6,5.1-3.1,19.6-3.2,19.8
						c-0.2,1,0.4,2.1,1.6,2.7c0.6,0.3,1.4,0.5,2.1,0.6c0.6,0,1.3-0.1,1.9-0.3c10.1-3.3,20.4-14.4,24-21.2c1.9-3.5,4.8-13.3,6.2-22.8
						c2.5-17.1-1.5-20.9-4.8-22.2C444.5,353,442.6,352.6,440.8,352.5z"/>
				</g>
				<path id="XMLID_78_" d="M426.6,382.6c0,0,1.7,0.8,2.3-1.4c0.6-2.2,4.5-8.5,7.6-8.5s5,1.7,5.4,3.7c0.4,1.9-0.7,6.9-0.7,6.9
					s2.2-7.6,0.9-10.1c-1.3-2.5-8.2-5.4-11.6,0.4C427.1,379.3,426.6,382.6,426.6,382.6z"/>
				<path id="XMLID_77_" d="M425.3,389.2c0,0,4.7,3.4,3.1,7.9c-1.6,4.5-3.2,6.4-3.2,6.4s-0.3,2.8,2.4-0.7c2.7-3.5,4.1-7.3,2.6-11.1
					C428.7,387.9,423.2,386.4,425.3,389.2z"/>
				<path id="XMLID_76_" d="M439.1,388.9c0,0-5.5,12.8-10.2,16.2c-4.7,3.4-3.9,4.9-0.8,2.3c3.1-2.5,11.9-11,12.3-16.4
					C440.7,388.5,440.4,386.1,439.1,388.9z"/>
			</g>
			<g id="XMLID_64_" clip-path="url(#XMLID_11_)">
				<g id="XMLID_72_">
					<path id="XMLID_73_" fill="#FFD68E" d="M159.9,355.4c6.6-0.3,12.3,5.5,12.3,5.5s1,4.1,2,9.5c1,5.4,3.3,21.6,4,26.8
						c0.7,5.2,3.2,19.9,3.2,19.9c-8.5-2.8-18.3-12.7-21.9-19.5c-3.7-6.8-11.2-38.1-3.2-41.4C157.5,355.7,158.8,355.5,159.9,355.4"/>
				</g>
				<g id="XMLID_68_">
					<path id="XMLID_69_" d="M159.9,355.4c6.6-0.3,12.3,5.5,12.3,5.5s1,4.1,2,9.5c1,5.4,3.3,21.6,4,26.8c0.7,5.2,3.2,19.9,3.2,19.9
						c-8.5-2.8-18.3-12.7-21.9-19.5c-3.7-6.8-11.2-38.1-3.2-41.4C157.5,355.7,158.8,355.5,159.9,355.4 M154.3,353.7
						c-3.3,1.3-7.3,5.1-4.8,22.2c1.4,9.5,4.3,19.2,6.2,22.8c3.6,6.7,14,17.8,24,21.2c0.6,0.2,1.2,0.3,1.9,0.3c0.8,0,1.5-0.2,2.1-0.6
						c1.2-0.6,1.7-1.6,1.6-2.7c0-0.1-2.5-14.7-3.2-19.8c-0.6-5.1-3-21.4-4-26.9c-1-5.4-2-9.5-2.1-9.7c-0.1-0.4-0.3-0.8-0.7-1.2
						c-0.7-0.7-7.2-7.1-15.8-6.8l0,0C157.8,352.6,156,353,154.3,353.7z"/>
				</g>
				<path id="XMLID_67_" d="M173.8,382.6c0,0-1.7,0.8-2.3-1.4c-0.6-2.2-4.5-8.5-7.6-8.5c-3.1,0.1-5,1.7-5.4,3.7s0.7,6.9,0.7,6.9
					s-2.2-7.6-0.9-10.1c1.3-2.5,8.2-5.4,11.6,0.4S173.8,382.6,173.8,382.6z"/>
				<path id="XMLID_66_" d="M175.2,389.2c0,0-4.7,3.4-3.1,7.9c1.6,4.5,3.2,6.4,3.2,6.4s0.3,2.8-2.4-0.7c-2.7-3.5-4.1-7.3-2.6-11.1
					C171.8,387.9,177.2,386.4,175.2,389.2z"/>
				<path id="XMLID_65_" d="M161.3,388.9c0,0,5.5,12.8,10.2,16.2c4.7,3.4,3.9,4.9,0.8,2.3c-3.1-2.5-11.9-11-12.3-16.4
					C159.7,388.5,160,386.1,161.3,388.9z"/>
			</g>
			<path id="XMLID_63_" clip-path="url(#XMLID_11_)" fill="#F15C67" d="M323.5,443.4c-5,1.9-11.8,2.3-18.2,2.2v0l0,0v0
				c-6.5,0.2-13.2-0.3-18.2-2.2c-13.3-4.9,1.9,8.2,18,8.8l0,0l0.2,0c0,0,0.1,0,0.1,0v0l0,0v0c0.1,0,0.2,0,0.2,0l0.3,0l0,0
				C321.8,451.4,336.7,438.5,323.5,443.4z"/>
			<path id="XMLID_62_" clip-path="url(#XMLID_11_)" fill="#F15C67" d="M323.5,444.5c-5,3.7-11.8,4.6-18.2,4.3v0l0,0v0
				c-6.5,0.3-13.2-0.6-18.2-4.3c-13.3-9.8,1.9,16.2,18,17.4l0,0l0.2,0c0,0,0.1,0,0.1,0v0l0,0v0c0.1,0,0.2,0,0.2,0l0.3,0l0,0
				C321.8,460.4,336.7,434.8,323.5,444.5z"/>
			<path id="XMLID_61_" clip-path="url(#XMLID_11_)" fill="#EC1F31" d="M323.5,444.2c-5,3.2-11.8,4-18.2,3.8v0l0,0v0
				c-6.5,0.3-13.2-0.5-18.2-3.8c-13.3-8.5,1.9,14.2,18,15.2l0,0l0.2,0c0,0,0.1,0,0.1,0v0l0,0v0c0.1,0,0.2,0,0.2,0l0.3,0l0,0
				C321.8,458.1,336.7,435.7,323.5,444.2z"/>
			<path id="XMLID_60_" clip-path="url(#XMLID_11_)" fill="#FCBA58" d="M332.4,435.6c0,0,6.2,0.4,5.7,9
				C337.5,453.2,344.4,430.7,332.4,435.6z"/>
			<path id="XMLID_59_" clip-path="url(#XMLID_11_)" fill="#FCBA58" d="M277.1,435.6c0,0-6.2,0.4-5.7,9S265.1,430.7,277.1,435.6z"/>
			<g id="XMLID_49_" clip-path="url(#XMLID_11_)">
				<defs>
					<path id="XMLID_50_" d="M323.5,444.2c-5,3.2-11.8,4-18.2,3.8v0l0,0v0c-6.5,0.3-13.2-0.5-18.2-3.8c-13.3-8.5,1.9,14.2,18,15.2
						l0,0l0.2,0c0,0,0.1,0,0.1,0v0l0,0v0c0.1,0,0.2,0,0.2,0l0.3,0l0,0C321.8,458.1,336.7,435.7,323.5,444.2z"/>
				</defs>
				<clipPath id="XMLID_58_">
					<use xlink:href="#XMLID_50_"  overflow="visible"/>
				</clipPath>
				<path id="XMLID_55_" clip-path="url(#XMLID_58_)" fill="#FFFFFF" stroke="#000000" stroke-miterlimit="10" d="M302.1,456.9h-2.3
					c-1.7,0-3.2-1.4-3.2-3.2v-5.4c0-1.7,1.4-3.2,3.2-3.2h2.3c1.7,0,3.2,1.4,3.2,3.2v5.4C305.3,455.4,303.9,456.9,302.1,456.9z"/>
				<path id="XMLID_51_" clip-path="url(#XMLID_58_)" fill="#FFFFFF" stroke="#000000" stroke-miterlimit="10" d="M310.7,456.9h-2.3
					c-1.7,0-3.2-1.4-3.2-3.2v-5.4c0-1.7,1.4-3.2,3.2-3.2h2.3c1.7,0,3.2,1.4,3.2,3.2v5.4C313.9,455.4,312.4,456.9,310.7,456.9z"/>
			</g>
			
				<path id="XMLID_48_" clip-path="url(#XMLID_11_)" fill="#FFD68E" stroke="#000000" stroke-width="2.8346" stroke-miterlimit="10" d="
				M437.4,505.1c0,0-35.5,18.2-44.6,39.1l-5.1,8.7l-20.2-20c0,0-2.1,27.7,8.8,36.3c10.9,8.6,37.8,19.1,66.3-23.6
				c28.6-42.7,19.5-37.7,19.5-37.7s19.7-1.8,26.8-2.7c7.1-0.9,22.8-8.6,24.3-9.5c1.5-0.9,1-6.8-14.7,0c0,0-10.5-3.7-20.3-1.9
				s-17.4,4.3-17.4,4.3S456.4,493.3,437.4,505.1z"/>
			<path id="XMLID_47_" clip-path="url(#XMLID_11_)" d="M362,546.2c0,0-46.2-60,0-65s64.5,53.4,64.5,53.4S397.7,562.3,362,546.2z"/>
			<g id="XMLID_41_" clip-path="url(#XMLID_11_)">
				<path id="XMLID_93_" fill="#FFD68E" d="M210.6,578.4c-15.8,0-30.9-10.8-44.8-32c-17.9-27.3-20.5-34.8-20.7-37.3
					c-5.7-0.5-18.3-1.8-23.7-2.5c-7.3-1-22.8-8.8-24.4-9.7c-1-0.6-1.5-1.9-1.1-3.2c0.2-0.8,1.2-2.7,4.9-2.7c2.8,0,6.6,1.1,11.4,3.1
					c1.8-0.6,7.6-2.3,14.3-2.3c2.1,0,4,0.2,5.8,0.5c4.6,0.9,7.6,2.4,9.1,4.5c0.2,0.3,0.4,0.6,0.5,0.9c1.6-0.5,4.4-1.1,8-1.1
					c7.4,0,15.1,2.5,22.9,7.4c2.1,1.1,35.3,18.8,44.3,39.7l4,7l20.7-20.9l0.2,3.1c0.1,1.2,2,28.6-9.1,37.5
					C229.1,573.3,221.3,578.4,210.6,578.4z"/>
				<path id="XMLID_43_" d="M100.8,492.4c2.3,0,5.9,0.8,11.4,3.2c0,0,6.7-2.4,14.3-2.4c1.8,0,3.7,0.1,5.6,0.5
					c9.6,1.8,8.7,5.9,8.7,5.9s3.3-1.6,9.1-1.6c5.5,0,13.1,1.5,22.2,7.2c0,0,34.8,18.2,43.8,39.1l5,8.7l19.8-20
					c0,0,2.1,27.7-8.6,36.3c-4.6,3.7-12.1,7.8-21.4,7.8c-12.3,0-27.7-7.1-43.6-31.4c-20.8-31.7-21.2-37.1-20.1-37.8
					c0.6,0.1,1,0.1,1,0.1s-0.3-0.2-0.7-0.2c-0.1,0-0.2,0-0.3,0.1c-4-0.4-19.3-1.8-25.3-2.6c-6.9-0.9-22.3-8.6-23.8-9.5
					C96.8,495,96.6,492.4,100.8,492.4 M100.8,489.5c-4.8,0-6,2.9-6.3,3.7c-0.5,1.8,0.2,3.8,1.7,4.7c1.6,1,17.4,9,24.9,9.9
					c5.1,0.7,16.5,1.8,22.6,2.4c0.8,3.8,4.9,12.6,20.8,36.8c14.2,21.7,29.7,32.7,46,32.7c11.1,0,19.3-5.3,23.2-8.4
					c11.8-9.5,9.8-37.6,9.7-38.8l-0.5-6.2l-4.4,4.4l-17.2,17.4l-3.1-5.3c-9.2-21.1-42.4-38.9-44.9-40.2c-8-5-15.9-7.6-23.6-7.6
					c-3.1,0-5.6,0.4-7.3,0.9c-1.6-2.4-5-4.2-10-5.1c-1.9-0.4-4-0.5-6.1-0.5c-6.3,0-11.9,1.5-14.2,2.2
					C107.5,490.6,103.6,489.5,100.8,489.5L100.8,489.5z"/>
			</g>
			<path id="XMLID_40_" clip-path="url(#XMLID_11_)" d="M243.5,546.2c0,0,46.2-60,0-65s-64.5,53.4-64.5,53.4
				S207.8,562.3,243.5,546.2z"/>
			<g id="XMLID_31_" clip-path="url(#XMLID_11_)">
				<polygon id="XMLID_39_" fill="#FFCB05" points="281.3,598 306.1,573.3 330.9,598.1 345.3,583.6 306.1,544.4 266.9,583.6 				"/>
				
					<rect id="XMLID_38_" x="246.5" y="598" transform="matrix(-0.7071 -0.7071 0.7071 -0.7071 8.1621 1219.8179)" fill="#FFCB05" width="20.4" height="20.4"/>
				<polygon id="XMLID_37_" fill="#FFCB05" points="281.3,618.4 306.1,643.2 330.9,618.4 345.3,632.8 345.3,632.8 306.1,672 
					266.9,632.8 266.9,632.8 				"/>
				
					<rect id="XMLID_36_" x="345.3" y="598" transform="matrix(0.7071 -0.7071 0.7071 0.7071 -325.9725 429.4834)" fill="#FFCB05" width="20.4" height="20.4"/>
				<polygon id="XMLID_34_" fill="#FFCB05" points="320.7,608.2 320.7,608.2 306.1,593.6 295.3,604.4 295.3,604.4 294,605.6 
					291.5,608.2 291.5,608.2 291.4,608.2 291.5,608.2 306.1,622.9 320.7,608.2 320.7,608.2 				"/>
			</g>
		</g>
		<g id="XMLID_1_" opacity="0.4">
			<g id="XMLID_2_">
				<path id="XMLID_3_" fill="#939598" d="M480.1,482.4c29.5,0,45.6-24.4,45.6-45.6c0-0.7,0-1.4,0-2.1c3.1-2.3,5.8-5.1,8-8.3
					c-2.9,1.3-6,2.1-9.2,2.5c3.3-2,5.8-5.1,7-8.9c-3.1,1.8-6.5,3.2-10.2,3.9c-2.9-3.1-7.1-5.1-11.7-5.1c-8.9,0-16,7.2-16,16
					c0,1.3,0.1,2.5,0.4,3.7c-13.3-0.7-25.1-7-33-16.7c-1.4,2.4-2.2,5.1-2.2,8.1c0,5.6,2.8,10.5,7.1,13.3c-2.6-0.1-5.1-0.8-7.3-2
					c0,0.1,0,0.1,0,0.2c0,7.8,5.5,14.2,12.9,15.7c-1.3,0.4-2.8,0.6-4.2,0.6c-1,0-2-0.1-3-0.3c2,6.4,8,11,15,11.1
					c-5.5,4.3-12.4,6.9-19.9,6.9c-1.3,0-2.6-0.1-3.8-0.2C462.6,479.8,471,482.4,480.1,482.4"/>
			</g>
		</g>
		<path id="XMLID_25_" opacity="0.4" fill="#939598" d="M161.3,459.7c-4.7,18.9-23.9,30.4-42.8,25.7c-18.9-4.7-30.4-23.9-25.7-42.8
			c4.7-18.9,23.9-30.4,42.7-25.7C154.6,421.7,166.1,440.8,161.3,459.7z"/>
		<path id="XMLID_24_" fill="#F99D1C" d="M159,455.3c-4.7,18.9-23.9,30.4-42.8,25.7c-18.9-4.7-30.4-23.9-25.7-42.8
			c4.7-18.9,23.9-30.4,42.7-25.7C152.2,417.3,163.7,436.4,159,455.3z"/>
		<path id="XMLID_10_" fill="#FFFFFF" d="M144.8,440.6c0.9-5.9-3.6-9.1-9.8-11.3l2-8.1l-4.9-1.2l-2,7.8c-1.3-0.3-2.6-0.6-3.9-0.9
			l2-7.9l-4.9-1.2l-2,8c-1.1-0.2-2.1-0.5-3.1-0.7l0,0l-6.8-1.7l-1.3,5.2c0,0,3.6,0.8,3.6,0.9c2,0.5,2.3,1.8,2.3,2.9l-2.3,9.2
			c0.1,0,0.3,0.1,0.5,0.2c-0.2,0-0.3-0.1-0.5-0.1l-3.2,12.8c-0.2,0.6-0.9,1.5-2.2,1.2c0,0.1-3.6-0.9-3.6-0.9l-2.4,5.6l6.4,1.6
			c1.2,0.3,2.3,0.6,3.5,0.9l-2,8.1l4.9,1.2l2-8.1c1.3,0.4,2.6,0.7,3.9,1l-2,8l4.9,1.2l2-8.1c8.4,1.6,14.6,0.9,17.3-6.6
			c2.1-6.1-0.1-9.6-4.5-11.9C141.7,447.1,144.2,445,144.8,440.6L144.8,440.6z M133.6,456.3c-1.5,6.1-11.8,2.8-15.1,2l2.7-10.8
			C124.5,448.3,135.2,450,133.6,456.3z M135.1,440.5c-1.4,5.5-9.9,2.7-12.7,2l2.4-9.8C127.6,433.5,136.6,434.7,135.1,440.5z"/>
		<g id="XMLID_32_">
			<g id="XMLID_33_">
				<path id="XMLID_35_" fill="#439CD6" d="M480.4,478.3c29.5,0,45.6-24.4,45.6-45.6c0-0.7,0-1.4,0-2.1c3.1-2.3,5.8-5.1,8-8.3
					c-2.9,1.3-6,2.1-9.2,2.5c3.3-2,5.8-5.1,7-8.9c-3.1,1.8-6.5,3.2-10.2,3.9c-2.9-3.1-7.1-5.1-11.7-5.1c-8.9,0-16,7.2-16,16
					c0,1.3,0.1,2.5,0.4,3.7c-13.3-0.7-25.1-7-33-16.7c-1.4,2.4-2.2,5.1-2.2,8.1c0,5.6,2.8,10.5,7.1,13.3c-2.6-0.1-5.1-0.8-7.3-2
					c0,0.1,0,0.1,0,0.2c0,7.8,5.5,14.2,12.9,15.7c-1.3,0.4-2.8,0.6-4.2,0.6c-1,0-2-0.1-3-0.3c2,6.4,8,11,15,11.1
					c-5.5,4.3-12.4,6.9-19.9,6.9c-1.3,0-2.6-0.1-3.8-0.2C463,475.7,471.4,478.3,480.4,478.3"/>
			</g>
		</g>
	</g>
</g>
</svg>
